{"accessors" : [{"bufferView" : 0, "byteOffset" : 0, "componentType" : 5123, "count" : 3684, "type" : "SCALAR", "max" : [3632], "min" : [0]}, {"bufferView" : 1, "byteOffset" : 0, "componentType" : 5126, "count" : 3633, "type" : "VEC3", "max" : [0.9994720220565796, 1.0008169412612915, 0.999701976776123], "min" : [-1.0007599592208862, -0.9820629954338074, -1.0008840560913086], "name" : "POSITION"}, {"bufferView" : 1, "byteOffset" : 12, "componentType" : 5126, "count" : 3633, "type" : "VEC2", "max" : [1, 0.9391279816627502], "min" : [0, 0.012925028800964355], "name" : "TEXCOORD_0"}, {"bufferView" : 1, "byteOffset" : 20, "componentType" : 5126, "count" : 3633, "type" : "VEC3", "max" : [0.9997516870498657, 0.9982134103775024, 1.0000044107437134], "min" : [-0.9995497465133667, -0.9734117388725281, -0.993953287601471], "name" : "NORMAL"}, {"bufferView" : 0, "byteOffset" : 7368, "componentType" : 5123, "count" : 2565, "type" : "SCALAR", "max" : [2564], "min" : [0]}, {"bufferView" : 2, "byteOffset" : 0, "componentType" : 5126, "count" : 2565, "type" : "VEC3", "max" : [0.9240829944610596, 1.039473056793213, 1.0592859983444214], "min" : [-1.0448789596557617, -0.9149450063705444, -1.0546079874038696], "name" : "POSITION"}, {"bufferView" : 2, "byteOffset" : 12, "componentType" : 5126, "count" : 2565, "type" : "VEC2", "max" : [0.999210000038147, 0.8271380066871643], "min" : [0.0022299999836832285, 0.03932201862335205], "name" : "TEXCOORD_0"}, {"bufferView" : 2, "byteOffset" : 20, "componentType" : 5126, "count" : 2565, "type" : "VEC3", "max" : [0.8456833362579346, 0.9892067313194275, 0.9984255433082581], "min" : [-0.9910808205604553, -0.8237996697425842, -0.9998738169670105], "name" : "NORMAL"}, {"bufferView" : 0, "byteOffset" : 12500, "componentType" : 5123, "count" : 5421, "type" : "SCALAR", "max" : [2145], "min" : [0]}, {"bufferView" : 3, "byteOffset" : 0, "componentType" : 5126, "count" : 2146, "type" : "VEC3", "max" : [0.9240829944610596, 1.039473056793213, 1.0592859983444214], "min" : [-1.0448789596557617, -0.9820629954338074, -1.0546079874038696], "name" : "POSITION"}, {"bufferView" : 3, "byteOffset" : 12, "componentType" : 5126, "count" : 2146, "type" : "VEC2", "max" : [0.999210000038147, 0.9391279816627502], "min" : [0, 0.03932201862335205], "name" : "TEXCOORD_0"}, {"bufferView" : 3, "byteOffset" : 20, "componentType" : 5126, "count" : 2146, "type" : "VEC3", "max" : [0.9977321624755859, 0.9974128603935242, 1.0000044107437134], "min" : [-0.9990925788879395, -0.9919050931930542, -0.9970723390579224], "name" : "NORMAL"}, {"bufferView" : 0, "byteOffset" : 23344, "componentType" : 5123, "count" : 498, "type" : "SCALAR", "max" : [427], "min" : [0]}, {"bufferView" : 4, "byteOffset" : 0, "componentType" : 5126, "count" : 428, "type" : "VEC3", "max" : [0.305961012840271, -0.8746629953384399, 0.43573200702667236], "min" : [-0.41148000955581665, -1.0673099756240845, -0.4816339910030365], "name" : "POSITION"}, {"bufferView" : 4, "byteOffset" : 12, "componentType" : 5126, "count" : 428, "type" : "VEC2", "max" : [0.9985780119895935, 0.9924460053443909], "min" : [0.0062409997917711735, 0.839946985244751], "name" : "TEXCOORD_0"}, {"bufferView" : 4, "byteOffset" : 20, "componentType" : 5126, "count" : 428, "type" : "VEC3", "max" : [0.9502782821655273, 0.4312902092933655, 0.9281904101371765], "min" : [-0.9855693578720093, -0.9996547698974609, -0.9774265289306641], "name" : "NORMAL"}], "asset" : {"generator" : "Aspose.3D 24.2.0", "version" : "2.0"}, "buffers" : [{"uri" : "buffer.bin", "byteLength" : 305064}], "bufferViews" : [{"buffer" : 0, "byteOffset" : 0, "byteLength" : 24340, "target" : 34963}, {"buffer" : 0, "byteOffset" : 24344, "byteLength" : 116256, "byteStride" : 32, "target" : 34962}, {"buffer" : 0, "byteOffset" : 140604, "byteLength" : 82080, "byteStride" : 32, "target" : 34962}, {"buffer" : 0, "byteOffset" : 222688, "byteLength" : 68672, "byteStride" : 32, "target" : 34962}, {"buffer" : 0, "byteOffset" : 291364, "byteLength" : 13696, "byteStride" : 32, "target" : 34962}], "meshes" : [{"primitives" : [{"attributes" : {"POSITION" : 1, "TEXCOORD_0" : 2, "NORMAL" : 3}, "indices" : 0, "mode" : 4}, {"attributes" : {"POSITION" : 5, "TEXCOORD_0" : 6, "NORMAL" : 7}, "indices" : 4, "mode" : 4}, {"attributes" : {"POSITION" : 9, "TEXCOORD_0" : 10, "NORMAL" : 11}, "indices" : 8, "mode" : 4}, {"attributes" : {"POSITION" : 13, "TEXCOORD_0" : 14, "NORMAL" : 15}, "indices" : 12, "mode" : 4}], "name" : ""}], "nodes" : [{"mesh" : 0, "name" : "Sphere_Sphere.002"}], "scene" : 0, "scenes" : [{"nodes" : [0]}]}