{
    "asset": {
        "version": "1.0",
        "generator": "Open Asset Import Library (assimp v4.1.0)"
    },
    "accessors": {
        "Sphere.002_accessor": {
            "bufferView": "Sphere.002_view",
            "byteOffset": 0,
            "byteStride": 0,
            "componentType": 5126,
            "count": 3633,
            "type": "VEC3",
            "max": [
                0.999829113483429,
                0.9991334080696106,
                1.0009301900863648
            ],
            "min": [
                -1.0001885890960694,
                -1.0017833709716797,
                -0.9818867444992065
            ]
        },
        "Sphere.002_accessor_0": {
            "bufferView": "Sphere.002_view_0",
            "byteOffset": 0,
            "byteStride": 0,
            "componentType": 5126,
            "count": 3633,
            "type": "VEC3",
            "max": [
                0.999790608882904,
                0.9997748732566834,
                1.0
            ],
            "min": [
                -0.9986675977706909,
                -0.9983282089233398,
                -0.9733221530914307
            ]
        },
        "Sphere.002_accessor_1": {
            "bufferView": "Sphere.002_view_1",
            "byteOffset": 0,
            "byteStride": 0,
            "componentType": 5126,
            "count": 3633,
            "type": "VEC2",
            "max": [
                1.0000001192092896,
                0.9391283392906189
            ],
            "min": [
                8.940696716308594e-8,
                0.012925028800964356
            ]
        },
        "Sphere.002_accessor_2": {
            "bufferView": "Sphere.002_view_2",
            "byteOffset": 0,
            "byteStride": 0,
            "componentType": 5123,
            "count": 3684,
            "type": "SCALAR",
            "max": [
                3632.0
            ],
            "min": [
                0.0
            ]
        },
        "Sphere.002_mesh_accessor": {
            "bufferView": "Sphere.002_mesh_view",
            "byteOffset": 0,
            "byteStride": 0,
            "componentType": 5126,
            "count": 2146,
            "type": "VEC3",
            "max": [
                1.0460973978042603,
                1.0396809577941895,
                1.0391769409179688
            ],
            "min": [
                -1.0424513816833497,
                -1.0562149286270142,
                -0.9818867444992065
            ]
        },
        "Sphere.002_mesh_accessor_0": {
            "bufferView": "Sphere.002_mesh_view_0",
            "byteOffset": 0,
            "byteStride": 0,
            "componentType": 5126,
            "count": 2146,
            "type": "VEC3",
            "max": [
                0.99699467420578,
                0.9975058436393738,
                1.0
            ],
            "min": [
                -0.9965712428092957,
                -0.9984075427055359,
                -0.991762638092041
            ]
        },
        "Sphere.002_mesh_accessor_1": {
            "bufferView": "Sphere.002_mesh_view_1",
            "byteOffset": 0,
            "byteStride": 0,
            "componentType": 5126,
            "count": 2146,
            "type": "VEC2",
            "max": [
                0.9992101192474365,
                0.9391283392906189
            ],
            "min": [
                1.1920928955078126e-7,
                0.03932154178619385
            ]
        },
        "Sphere.002_mesh_accessor_2": {
            "bufferView": "Sphere.002_mesh_view_2",
            "byteOffset": 0,
            "byteStride": 0,
            "componentType": 5123,
            "count": 5421,
            "type": "SCALAR",
            "max": [
                2145.0
            ],
            "min": [
                0.0
            ]
        },
        "Sphere.002_mesh_0_accessor": {
            "bufferView": "Sphere.002_mesh_0_view",
            "byteOffset": 0,
            "byteStride": 0,
            "componentType": 5126,
            "count": 2565,
            "type": "VEC3",
            "max": [
                1.0460973978042603,
                1.0396809577941895,
                1.0391769409179688
            ],
            "min": [
                -1.0424513816833497,
                -1.0562149286270142,
                -0.916206955909729
            ]
        },
        "Sphere.002_mesh_0_accessor_0": {
            "bufferView": "Sphere.002_mesh_0_view_0",
            "byteOffset": 0,
            "byteStride": 0,
            "componentType": 5126,
            "count": 2565,
            "type": "VEC3",
            "max": [
                0.9968016743659973,
                0.9823896288871765,
                0.9888758659362793
            ],
            "min": [
                -0.9602755308151245,
                -0.9877546429634094,
                -0.8251228332519531
            ]
        },
        "Sphere.002_mesh_0_accessor_1": {
            "bufferView": "Sphere.002_mesh_0_view_1",
            "byteOffset": 0,
            "byteStride": 0,
            "componentType": 5126,
            "count": 2565,
            "type": "VEC2",
            "max": [
                0.9992101192474365,
                0.8271376490592957
            ],
            "min": [
                0.002230448881164193,
                0.03932154178619385
            ]
        },
        "Sphere.002_mesh_0_accessor_2": {
            "bufferView": "Sphere.002_mesh_0_view_2",
            "byteOffset": 0,
            "byteStride": 0,
            "componentType": 5123,
            "count": 2565,
            "type": "SCALAR",
            "max": [
                2564.0
            ],
            "min": [
                0.0
            ]
        },
        "Sphere.002_mesh_1_accessor": {
            "bufferView": "Sphere.002_mesh_1_view",
            "byteOffset": 0,
            "byteStride": 0,
            "componentType": 5126,
            "count": 428,
            "type": "VEC3",
            "max": [
                0.36853307485580447,
                0.4113941490650177,
                -0.8757662773132324
            ],
            "min": [
                -0.39067327976226809,
                -0.4481832981109619,
                -1.0673469305038453
            ]
        },
        "Sphere.002_mesh_1_accessor_0": {
            "bufferView": "Sphere.002_mesh_1_view_0",
            "byteOffset": 0,
            "byteStride": 0,
            "componentType": 5126,
            "count": 428,
            "type": "VEC3",
            "max": [
                0.9820106029510498,
                0.9668892025947571,
                0.42942360043525698
            ],
            "min": [
                -0.9991990327835083,
                -0.9986051917076111,
                -0.9995889663696289
            ]
        },
        "Sphere.002_mesh_1_accessor_1": {
            "bufferView": "Sphere.002_mesh_1_view_1",
            "byteOffset": 0,
            "byteStride": 0,
            "componentType": 5126,
            "count": 428,
            "type": "VEC2",
            "max": [
                0.9985775947570801,
                0.9924459457397461
            ],
            "min": [
                0.006240673363208771,
                0.8399472236633301
            ]
        },
        "Sphere.002_mesh_1_accessor_2": {
            "bufferView": "Sphere.002_mesh_1_view_2",
            "byteOffset": 0,
            "byteStride": 0,
            "componentType": 5123,
            "count": 498,
            "type": "SCALAR",
            "max": [
                427.0
            ],
            "min": [
                0.0
            ]
        }
    },
    "buffers": {
        "../../download/gw0puuz7eloq/gw0puuz7eloq": {
            "byteLength": 305044,
            "type": "arraybuffer",
            "uri": "../../download/gw0puuz7eloq/gw0puuz7eloq.bin"
        }
    },
    "bufferViews": {
        "Sphere.002_view": {
            "buffer": "../../download/gw0puuz7eloq/gw0puuz7eloq",
            "byteOffset": 0,
            "byteLength": 43596,
            "target": 34962
        },
        "Sphere.002_view_0": {
            "buffer": "../../download/gw0puuz7eloq/gw0puuz7eloq",
            "byteOffset": 43596,
            "byteLength": 43596,
            "target": 34962
        },
        "Sphere.002_view_1": {
            "buffer": "../../download/gw0puuz7eloq/gw0puuz7eloq",
            "byteOffset": 87192,
            "byteLength": 29064,
            "target": 34962
        },
        "Sphere.002_view_2": {
            "buffer": "../../download/gw0puuz7eloq/gw0puuz7eloq",
            "byteOffset": 116256,
            "byteLength": 7368,
            "target": 34963
        },
        "Sphere.002_mesh_view": {
            "buffer": "../../download/gw0puuz7eloq/gw0puuz7eloq",
            "byteOffset": 123624,
            "byteLength": 25752,
            "target": 34962
        },
        "Sphere.002_mesh_view_0": {
            "buffer": "../../download/gw0puuz7eloq/gw0puuz7eloq",
            "byteOffset": 149376,
            "byteLength": 25752,
            "target": 34962
        },
        "Sphere.002_mesh_view_1": {
            "buffer": "../../download/gw0puuz7eloq/gw0puuz7eloq",
            "byteOffset": 175128,
            "byteLength": 17168,
            "target": 34962
        },
        "Sphere.002_mesh_view_2": {
            "buffer": "../../download/gw0puuz7eloq/gw0puuz7eloq",
            "byteOffset": 192296,
            "byteLength": 10842,
            "target": 34963
        },
        "Sphere.002_mesh_0_view": {
            "buffer": "../../download/gw0puuz7eloq/gw0puuz7eloq",
            "byteOffset": 203140,
            "byteLength": 30780,
            "target": 34962
        },
        "Sphere.002_mesh_0_view_0": {
            "buffer": "../../download/gw0puuz7eloq/gw0puuz7eloq",
            "byteOffset": 233920,
            "byteLength": 30780,
            "target": 34962
        },
        "Sphere.002_mesh_0_view_1": {
            "buffer": "../../download/gw0puuz7eloq/gw0puuz7eloq",
            "byteOffset": 264700,
            "byteLength": 20520,
            "target": 34962
        },
        "Sphere.002_mesh_0_view_2": {
            "buffer": "../../download/gw0puuz7eloq/gw0puuz7eloq",
            "byteOffset": 285220,
            "byteLength": 5130,
            "target": 34963
        },
        "Sphere.002_mesh_1_view": {
            "buffer": "../../download/gw0puuz7eloq/gw0puuz7eloq",
            "byteOffset": 290352,
            "byteLength": 5136,
            "target": 34962
        },
        "Sphere.002_mesh_1_view_0": {
            "buffer": "../../download/gw0puuz7eloq/gw0puuz7eloq",
            "byteOffset": 295488,
            "byteLength": 5136,
            "target": 34962
        },
        "Sphere.002_mesh_1_view_1": {
            "buffer": "../../download/gw0puuz7eloq/gw0puuz7eloq",
            "byteOffset": 300624,
            "byteLength": 3424,
            "target": 34962
        },
        "Sphere.002_mesh_1_view_2": {
            "buffer": "../../download/gw0puuz7eloq/gw0puuz7eloq",
            "byteOffset": 304048,
            "byteLength": 996,
            "target": 34963
        }
    },
    "materials": {
        "Material.009": {
            "values": {
                "ambient": [
                    0.0,
                    0.0,
                    0.0,
                    1.0
                ],
                "diffuse": [
                    0.006216820329427719,
                    0.37804681062698367,
                    0.6827744245529175,
                    1.0
                ],
                "specular": [
                    0.0015542050823569298,
                    0.09451170265674591,
                    0.17069360613822938,
                    1.0
                ],
                "emission": [
                    0.0,
                    0.0,
                    0.0,
                    1.0
                ],
                "shininess": 25.0
            }
        },
        "Material.010": {
            "values": {
                "ambient": [
                    0.0,
                    0.0,
                    0.0,
                    1.0
                ],
                "diffuse": [
                    0.05683440342545509,
                    0.24227656424045564,
                    0.10035599768161774,
                    1.0
                ],
                "specular": [
                    0.014208600856363774,
                    0.06056914106011391,
                    0.025088999420404435,
                    1.0
                ],
                "emission": [
                    0.0,
                    0.0,
                    0.0,
                    1.0
                ],
                "shininess": 25.0
            }
        },
        "Material.008": {
            "values": {
                "ambient": [
                    0.0,
                    0.0,
                    0.0,
                    1.0
                ],
                "diffuse": [
                    0.04057749733328819,
                    0.8162760734558106,
                    0.11648337543010712,
                    1.0
                ],
                "specular": [
                    0.010144374333322049,
                    0.20406901836395265,
                    0.02912084385752678,
                    1.0
                ],
                "emission": [
                    0.0,
                    0.0,
                    0.0,
                    1.0
                ],
                "shininess": 25.0
            }
        },
        "Material.005": {
            "values": {
                "ambient": [
                    0.0,
                    0.0,
                    0.0,
                    1.0
                ],
                "diffuse": [
                    0.6434436440467835,
                    0.759128212928772,
                    0.805510401725769,
                    1.0
                ],
                "specular": [
                    0.16086091101169587,
                    0.189782053232193,
                    0.20137760043144227,
                    1.0
                ],
                "emission": [
                    0.0,
                    0.0,
                    0.0,
                    1.0
                ],
                "shininess": 25.0
            }
        }
    },
    "meshes": {
        "Sphere.002": {
            "name": "",
            "primitives": [
                {
                    "mode": 4,
                    "material": "Material.009",
                    "indices": "Sphere.002_accessor_2",
                    "attributes": {
                        "POSITION": "Sphere.002_accessor",
                        "NORMAL": "Sphere.002_accessor_0",
                        "TEXCOORD_0": "Sphere.002_accessor_1"
                    }
                }
            ]
        },
        "Sphere.002_mesh": {
            "name": "",
            "primitives": [
                {
                    "mode": 4,
                    "material": "Material.010",
                    "indices": "Sphere.002_mesh_accessor_2",
                    "attributes": {
                        "POSITION": "Sphere.002_mesh_accessor",
                        "NORMAL": "Sphere.002_mesh_accessor_0",
                        "TEXCOORD_0": "Sphere.002_mesh_accessor_1"
                    }
                }
            ]
        },
        "Sphere.002_mesh_0": {
            "name": "",
            "primitives": [
                {
                    "mode": 4,
                    "material": "Material.008",
                    "indices": "Sphere.002_mesh_0_accessor_2",
                    "attributes": {
                        "POSITION": "Sphere.002_mesh_0_accessor",
                        "NORMAL": "Sphere.002_mesh_0_accessor_0",
                        "TEXCOORD_0": "Sphere.002_mesh_0_accessor_1"
                    }
                }
            ]
        },
        "Sphere.002_mesh_1": {
            "name": "",
            "primitives": [
                {
                    "mode": 4,
                    "material": "Material.005",
                    "indices": "Sphere.002_mesh_1_accessor_2",
                    "attributes": {
                        "POSITION": "Sphere.002_mesh_1_accessor",
                        "NORMAL": "Sphere.002_mesh_1_accessor_0",
                        "TEXCOORD_0": "Sphere.002_mesh_1_accessor_1"
                    }
                }
            ]
        }
    },
    "nodes": {
        "RootNode": {
            "children": [
                "Sphere",
                "Camera",
                "Sun"
            ]
        },
        "Sphere": {
            "matrix": [
                -64.26734161376953,
                0.08809889107942581,
                -76.61397552490235,
                0.0,
                -76.61396026611328,
                -0.21195776760578156,
                64.26708221435547,
                0.0,
                -0.10577069222927094,
                99.99974060058594,
                0.20371568202972413,
                0.0,
                0.0,
                0.0,
                0.0,
                1.0
            ],
            "meshes": [
                "Sphere.002",
                "Sphere.002_mesh",
                "Sphere.002_mesh_0",
                "Sphere.002_mesh_1"
            ]
        },
        "Camera": {
            "matrix": [
                64.33689880371094,
                -35.63125228881836,
                67.75823974609375,
                0.0,
                23.752824783325197,
                93.43128967285156,
                26.578184127807618,
                0.0,
                -72.77754974365235,
                -1.005083680152893,
                68.57422637939453,
                0.0,
                -376.41156005859377,
                212.6060791015625,
                -393.10565185546877,
                1.0
            ]
        },
        "Sun": {
            "matrix": [
                12.709517478942871,
                27.598711013793947,
                -95.27213287353516,
                0.0,
                -83.8465347290039,
                54.305545806884769,
                4.546074390411377,
                0.0,
                52.99271011352539,
                79.30460357666016,
                30.042539596557618,
                0.0,
                -392.885498046875,
                52.63119888305664,
                212.15130615234376,
                1.0
            ]
        }
    },
    "scenes": {
        "defaultScene": {
            "nodes": [
                "RootNode"
            ]
        }
    },
    "scene": "defaultScene"
}